<svg width="17" height="17" viewBox="0 0 17 17" fill="none" xmlns="http://www.w3.org/2000/svg">
<path d="M2.39062 2.42383C4.00651 0.807943 5.95443 0 8.23438 0C10.5143 0 12.4512 0.807943 14.0449 2.42383C15.6608 4.01758 16.4688 5.95443 16.4688 8.23438C16.4688 10.5143 15.6608 12.4622 14.0449 14.0781C12.4512 15.6719 10.5143 16.4688 8.23438 16.4688C5.95443 16.4688 4.00651 15.6719 2.39062 14.0781C0.796875 12.4622 0 10.5143 0 8.23438C0 5.95443 0.796875 4.01758 2.39062 2.42383ZM10.127 11.6211C10.3483 11.776 10.5365 11.7539 10.6914 11.5547L11.6211 10.2598C11.776 10.0384 11.7539 9.85026 11.5547 9.69531L9.42969 8.16797V3.58594C9.42969 3.32031 9.29688 3.1875 9.03125 3.1875H7.4375C7.17188 3.1875 7.03906 3.32031 7.03906 3.58594V9.16406C7.03906 9.29688 7.0944 9.40755 7.20508 9.49609L10.127 11.6211Z" fill="white"/>
<a href="https://www.figma.com/design/Nx4sNsAeWJfmVVOXuDSmxJ?node-id=2-2093">
<rect fill="black" fill-opacity="0" width="17" height="17"/>
</a>
</svg>
