<svg width="14" height="32" viewBox="0 0 14 32" fill="none" xmlns="http://www.w3.org/2000/svg">
<path d="M12.5441 8.8125C13.0422 8.8125 13.4816 9.25195 13.4816 9.7793V21C13.4816 21.5273 13.0422 21.9375 12.5441 21.9375H1.26483C0.766781 21.9375 0.356625 21.5273 0.356625 21V9.7793C0.356625 9.25195 0.766781 8.8125 1.26483 8.8125H12.5441ZM4.3117 20.0625V13.8223H2.37811V20.0625H4.3117ZM3.34491 12.9434C3.96014 12.9434 4.45819 12.4453 4.45819 11.8301C4.45819 11.2148 3.96014 10.6875 3.34491 10.6875C2.70037 10.6875 2.20233 11.2148 2.20233 11.8301C2.20233 12.4453 2.70037 12.9434 3.34491 12.9434ZM11.6066 20.0625V16.6348C11.6066 14.9648 11.2258 13.6465 9.26287 13.6465C8.32537 13.6465 7.68084 14.1738 7.41717 14.6719H7.38787V13.8223H5.54217V20.0625H7.47577V16.9863C7.47577 16.166 7.62225 15.375 8.64764 15.375C9.64373 15.375 9.64373 16.3125 9.64373 17.0156V20.0625H11.6066Z" fill="white"/>
<a href="https://www.figma.com/design/Nx4sNsAeWJfmVVOXuDSmxJ?node-id=2-2093">
<rect fill="black" fill-opacity="0" x="0.356625" y="-1.125" width="13.125" height="17.25"/>
</a>
</svg>
