<svg width="25" height="25" viewBox="0 0 37 34" fill="none" xmlns="http://www.w3.org/2000/svg">
    <path
        d="M30.7628 28.6101L24.3082 22.2586C25.9984 20.4222 27.037 17.9936 27.037 15.3211C27.0362 9.60408 22.3273 4.97021 16.5181 4.97021C10.7089 4.97021 6 9.60408 6 15.3211C6 21.038 10.7089 25.6719 16.5181 25.6719C19.0281 25.6719 21.3301 24.8037 23.1384 23.3604L29.618 29.7369C29.9338 30.0479 30.4463 30.0479 30.7621 29.7369C31.0785 29.4259 31.0785 28.9211 30.7628 28.6101ZM16.5181 24.0794C11.6029 24.0794 7.61836 20.1581 7.61836 15.3211C7.61836 10.484 11.6029 6.56275 16.5181 6.56275C21.4333 6.56275 25.4178 10.484 25.4178 15.3211C25.4178 20.1581 21.4333 24.0794 16.5181 24.0794Z"
        fill="#0E2A46" />
</svg>