<svg width="14" height="32" viewBox="0 0 14 32" fill="none" xmlns="http://www.w3.org/2000/svg">
<path d="M12.7785 16.6641C13.218 17.2207 13.4816 17.9238 13.4523 18.6562C13.4523 20.4727 11.9875 21.9375 10.1711 21.9375C9.43866 21.9375 8.73553 21.7031 8.17889 21.2637C7.76873 21.3516 7.32928 21.4102 6.88983 21.4102C3.57928 21.4102 0.883968 18.7148 0.883968 15.375C0.883968 14.9648 0.942562 14.5254 1.03045 14.1152C0.591 13.5586 0.356625 12.8555 0.356625 12.0938C0.356625 10.3066 1.82147 8.8125 3.63787 8.8125C4.3703 8.8125 5.07342 9.07617 5.63006 9.51562C6.04022 9.42773 6.47967 9.36914 6.91912 9.36914C10.2297 9.36914 12.925 12.0645 12.925 15.375C12.925 15.8145 12.8664 16.2539 12.7785 16.6641ZM7.09491 19.3594C8.70623 19.3594 10.3762 18.5391 10.3762 16.8105C10.3762 15.3164 8.91131 14.8184 7.71014 14.5547C6.30389 14.2031 5.68866 14.1445 5.68866 13.5879C5.68866 13.1191 6.15741 12.9141 6.91912 12.9141C8.26678 12.9141 8.29608 13.9102 9.11639 13.9102C9.67303 13.9102 9.9953 13.4707 9.9953 12.9727C9.9953 11.9766 8.35467 11.332 6.74334 11.332C5.2785 11.332 3.54998 11.9766 3.54998 13.7344C3.54998 15.6387 5.19061 15.8145 7.00702 16.2832C7.76873 16.459 8.23748 16.5469 8.23748 17.1035C8.23748 17.543 7.73944 17.8652 7.00702 17.8652C5.42498 17.8652 5.33709 16.5469 4.42889 16.5469C3.81366 16.5469 3.54998 16.9863 3.54998 17.4551C3.54998 18.5098 5.16131 19.3594 7.09491 19.3594Z" fill="white"/>
<a href="https://www.figma.com/design/Nx4sNsAeWJfmVVOXuDSmxJ?node-id=2-2093">
<rect fill="black" fill-opacity="0" x="0.356625" y="-1.125" width="13.125" height="17.25"/>
</a>
</svg>
