<svg width="16" height="32" viewBox="0 0 16 32" fill="none" xmlns="http://www.w3.org/2000/svg">
<path d="M13.8223 12.3281C13.8223 12.4746 13.8223 12.5918 13.8223 12.7383C13.8223 16.8105 10.7461 21.4688 5.0918 21.4688C3.33398 21.4688 1.72266 20.9707 0.375 20.0918C0.609375 20.1211 0.84375 20.1504 1.10742 20.1504C2.54297 20.1504 3.86133 19.6523 4.91602 18.832C3.56836 18.8027 2.42578 17.9238 2.04492 16.6934C2.25 16.7227 2.42578 16.752 2.63086 16.752C2.89453 16.752 3.1875 16.6934 3.42188 16.6348C2.01562 16.3418 0.960938 15.1113 0.960938 13.6172V13.5879C1.37109 13.8223 1.86914 13.9395 2.36719 13.9688C1.51758 13.4121 0.990234 12.4746 0.990234 11.4199C0.990234 10.834 1.13672 10.3066 1.40039 9.86719C2.92383 11.7129 5.20898 12.9434 7.75781 13.0898C7.69922 12.8555 7.66992 12.6211 7.66992 12.3867C7.66992 10.6875 9.04688 9.31055 10.7461 9.31055C11.625 9.31055 12.416 9.66211 13.002 10.2773C13.6758 10.1309 14.3496 9.86719 14.9355 9.51562C14.7012 10.248 14.2324 10.834 13.5879 11.2148C14.2031 11.1562 14.8184 10.9805 15.3457 10.7461C14.9355 11.3613 14.4082 11.8887 13.8223 12.3281Z" fill="white"/>
<a href="https://www.figma.com/design/Nx4sNsAeWJfmVVOXuDSmxJ?node-id=2-2093">
<rect fill="black" fill-opacity="0" x="0.375" y="-1.125" width="15" height="17.25"/>
</a>
</svg>
