<svg width="25" height="19" viewBox="0 0 25 19" fill="none" xmlns="http://www.w3.org/2000/svg">
<path d="M24.5117 6.20117C24.6094 6.10352 24.707 6.08724 24.8047 6.15234C24.9349 6.21745 25 6.3151 25 6.44531V16.4062C25 17.0573 24.7721 17.6107 24.3164 18.0664C23.8607 18.5221 23.3073 18.75 22.6562 18.75H2.34374C1.6927 18.75 1.13932 18.5221 0.683588 18.0664C0.227859 17.6107 -5.72205e-06 17.0573 -5.72205e-06 16.4062V6.44531C-5.72205e-06 6.3151 0.0488224 6.23372 0.146479 6.20117C0.276687 6.13607 0.390619 6.13607 0.488276 6.20117C1.56249 7.01497 4.069 8.85417 8.00781 11.7188C8.07291 11.7839 8.2845 11.9629 8.64257 12.2559C9.0332 12.5488 9.34244 12.7767 9.57031 12.9395C9.79817 13.0697 10.0911 13.2487 10.4492 13.4766C10.8073 13.6719 11.1491 13.8184 11.4746 13.916C11.8327 14.0137 12.1745 14.0625 12.5 14.0625C12.793 14.0625 13.0859 14.0299 13.3789 13.9648C13.6719 13.8672 13.9486 13.7695 14.209 13.6719C14.4694 13.5417 14.7461 13.3789 15.0391 13.1836C15.332 12.9883 15.5762 12.8255 15.7715 12.6953C15.9668 12.5326 16.1947 12.3535 16.4551 12.1582C16.7155 11.9629 16.8945 11.8164 16.9922 11.7188C20.8333 8.95182 23.3398 7.11263 24.5117 6.20117ZM12.5 12.5C12.2396 12.5 11.9141 12.4186 11.5234 12.2559C11.1654 12.0605 10.8724 11.8978 10.6445 11.7676C10.4167 11.6048 10.0749 11.3607 9.61913 11.0352C9.19596 10.6771 8.96809 10.498 8.93554 10.498C4.96419 7.60091 2.13216 5.5013 0.439447 4.19922C0.146479 3.97135 -5.72205e-06 3.66211 -5.72205e-06 3.27148V2.34375C-5.72205e-06 1.69271 0.227859 1.13932 0.683588 0.683594C1.13932 0.227865 1.6927 0 2.34374 0H22.6562C23.3073 0 23.8607 0.227865 24.3164 0.683594C24.7721 1.13932 25 1.69271 25 2.34375V3.27148C25 3.66211 24.8535 3.97135 24.5605 4.19922C22.9655 5.4362 20.1335 7.53581 16.0644 10.498C16.0319 10.498 15.7878 10.6771 15.332 11.0352C14.9088 11.3607 14.5833 11.6048 14.3555 11.7676C14.1276 11.8978 13.8184 12.0605 13.4277 12.2559C13.0697 12.4186 12.7604 12.5 12.5 12.5Z" fill="white"/>
</svg>
