<svg width="45" height="45" viewBox="0 0 45 45" fill="none" xmlns="http://www.w3.org/2000/svg">
<rect width="45" height="45" rx="22.5" fill="#4D5756"/>
<path d="M22.6867 17.8066C24.7785 17.8066 26.5051 19.5332 26.5051 21.625C26.5051 23.75 24.7785 25.4434 22.6867 25.4434C20.5617 25.4434 18.8684 23.75 18.8684 21.625C18.8684 19.5332 20.5617 17.8066 22.6867 17.8066ZM22.6867 24.1152C24.0481 24.1152 25.1438 23.0195 25.1438 21.625C25.1438 20.2637 24.0481 19.168 22.6867 19.168C21.2922 19.168 20.1965 20.2637 20.1965 21.625C20.1965 23.0195 21.3254 24.1152 22.6867 24.1152ZM27.5344 17.6738C27.5344 18.1719 27.136 18.5703 26.6379 18.5703C26.1399 18.5703 25.7414 18.1719 25.7414 17.6738C25.7414 17.1758 26.1399 16.7773 26.6379 16.7773C27.136 16.7773 27.5344 17.1758 27.5344 17.6738ZM30.0578 18.5703C30.1242 19.7988 30.1242 23.4844 30.0578 24.7129C29.9914 25.9082 29.7258 26.9375 28.8625 27.834C27.9992 28.6973 26.9367 28.9629 25.7414 29.0293C24.5129 29.0957 20.8274 29.0957 19.5989 29.0293C18.4035 28.9629 17.3742 28.6973 16.4778 27.834C15.6145 26.9375 15.3489 25.9082 15.2825 24.7129C15.216 23.4844 15.216 19.7988 15.2825 18.5703C15.3489 17.375 15.6145 16.3125 16.4778 15.4492C17.3742 14.5859 18.4035 14.3203 19.5989 14.2539C20.8274 14.1875 24.5129 14.1875 25.7414 14.2539C26.9367 14.3203 27.9992 14.5859 28.8625 15.4492C29.7258 16.3125 29.9914 17.375 30.0578 18.5703ZM28.4641 26.0078C28.8625 25.0449 28.7629 22.7207 28.7629 21.625C28.7629 20.5625 28.8625 18.2383 28.4641 17.2422C28.1985 16.6113 27.7004 16.0801 27.0696 15.8477C26.0735 15.4492 23.7492 15.5488 22.6867 15.5488C21.591 15.5488 19.2668 15.4492 18.3039 15.8477C17.6399 16.1133 17.1418 16.6113 16.8762 17.2422C16.4778 18.2383 16.5774 20.5625 16.5774 21.625C16.5774 22.7207 16.4778 25.0449 16.8762 26.0078C17.1418 26.6719 17.6399 27.1699 18.3039 27.4355C19.2668 27.834 21.591 27.7344 22.6867 27.7344C23.7492 27.7344 26.0735 27.834 27.0696 27.4355C27.7004 27.1699 28.2317 26.6719 28.4641 26.0078Z" fill="#00BEAE"/>
<a href="https://www.figma.com/design/Nx4sNsAeWJfmVVOXuDSmxJ?node-id=2-2093">
<rect fill="black" fill-opacity="0" x="0.18925" y="-1.275" width="14.875" height="19.55"/>
</a>
</svg>
