<svg width="19" height="25" viewBox="0 0 19 25" fill="none" xmlns="http://www.w3.org/2000/svg">
<path d="M8.39846 24.5117C7.61721 23.3724 6.72203 22.0866 5.71292 20.6543C4.73635 19.222 4.03648 18.2129 3.61331 17.627C3.19013 17.041 2.70185 16.3249 2.14846 15.4785C1.59508 14.5996 1.22073 13.9811 1.02542 13.623C0.862655 13.265 0.667343 12.8092 0.439478 12.2559C0.244165 11.7025 0.113957 11.2305 0.0488529 10.8398C0.0163008 10.4167 2.47955e-05 9.92839 2.47955e-05 9.375C2.47955e-05 6.77083 0.911483 4.55729 2.7344 2.73438C4.55732 0.911458 6.77086 0 9.37502 0C11.9792 0 14.1927 0.911458 16.0156 2.73438C17.8386 4.55729 18.75 6.77083 18.75 9.375C18.75 9.92839 18.7175 10.4167 18.6524 10.8398C18.6198 11.2305 18.4896 11.7025 18.2617 12.2559C18.0664 12.8092 17.8711 13.265 17.6758 13.623C17.513 13.9811 17.155 14.5996 16.6016 15.4785C16.0482 16.3249 15.5599 17.041 15.1367 17.627C14.7136 18.2129 13.9974 19.222 12.9883 20.6543C12.0117 22.0866 11.1328 23.3724 10.3516 24.5117C10.1237 24.8372 9.7982 25 9.37502 25C8.95185 25 8.62633 24.8372 8.39846 24.5117ZM6.59182 12.1582C7.37307 12.9069 8.30081 13.2812 9.37502 13.2812C10.4492 13.2812 11.3607 12.9069 12.1094 12.1582C12.8906 11.377 13.2813 10.4492 13.2813 9.375C13.2813 8.30078 12.8906 7.38932 12.1094 6.64062C11.3607 5.85938 10.4492 5.46875 9.37502 5.46875C8.30081 5.46875 7.37307 5.85938 6.59182 6.64062C5.84312 7.38932 5.46877 8.30078 5.46877 9.375C5.46877 10.4492 5.84312 11.377 6.59182 12.1582Z" fill="white"/>
</svg>
