<svg width="45" height="45" viewBox="0 0 45 45" fill="none" xmlns="http://www.w3.org/2000/svg">
<rect width="45" height="45" rx="22.5" fill="#4D5756"/>
<path d="M23.0769 13.3574C26.198 13.3574 29.0534 15.5156 29.0534 18.8027C29.0534 21.8906 27.4597 25.3438 23.9402 25.3438C23.0769 25.3438 22.0476 24.9121 21.6159 24.1484C20.8855 27.1367 20.9187 27.6016 19.2585 29.8926C19.0925 29.959 19.1257 29.959 19.0261 29.8262C18.9597 29.1953 18.8933 28.5977 18.8933 27.9668C18.8933 25.9414 19.823 22.9863 20.2878 21.0273C20.0222 20.4961 19.9558 19.8984 19.9558 19.334C19.9558 16.6777 23.0769 16.2793 23.0769 18.4707C23.0769 19.7656 22.1804 20.9941 22.1804 22.2559C22.1804 23.0859 22.9109 23.6836 23.7409 23.6836C26.032 23.6836 26.7292 20.3965 26.7292 18.6367C26.7292 16.2793 25.0691 14.9844 22.7781 14.9844C20.155 14.9844 18.1296 16.877 18.1296 19.5332C18.1296 20.8281 18.9265 21.4922 18.9265 21.791C18.9265 22.0566 18.7273 22.9531 18.3952 22.9531C17.5984 22.9531 16.3034 21.625 16.3034 19.3008C16.3034 15.6152 19.657 13.3574 23.0769 13.3574Z" fill="#00BEAE"/>
<a href="https://www.figma.com/design/Nx4sNsAeWJfmVVOXuDSmxJ?node-id=2-2093">
<rect fill="black" fill-opacity="0" x="0.173438" y="-1.275" width="12.75" height="19.55"/>
</a>
</svg>
