<svg width="26" height="26" viewBox="0 0 26 26" fill="none" xmlns="http://www.w3.org/2000/svg">
<path d="M24.1992 24.2886C24.0798 24.9093 23.7109 25.225 23.0925 25.2358C16.8435 25.3449 11.4671 23.2249 6.96343 18.8757C2.45976 14.5266 0.153383 9.22747 0.0443055 2.97842C0.0335114 2.36002 0.336176 1.98033 0.952299 1.83935L6.0092 0.579027C6.62476 0.405497 7.06812 0.625658 7.33929 1.23951L9.77813 6.66652C10.015 7.1833 9.90908 7.64095 9.46024 8.03947L6.57276 10.4828C7.48505 12.3878 8.70256 14.0595 10.2253 15.498C11.7486 16.969 13.4618 18.1274 15.3649 18.9732L17.7548 16.0014C18.1048 15.5395 18.5585 15.4176 19.1158 15.6358L24.6246 17.8837C25.215 18.1339 25.4342 18.5696 25.2823 19.1908L24.1992 24.2886Z" fill="white"/>
</svg>
