<svg width="45" height="45" viewBox="0 0 45 45" fill="none" xmlns="http://www.w3.org/2000/svg">
<rect width="45" height="45" rx="22.5" fill="#4D5756"/>
<path d="M29.4402 18.1719C29.4402 18.3379 29.4402 18.4707 29.4402 18.6367C29.4402 23.252 25.9539 28.5312 19.5457 28.5312C17.5535 28.5312 15.7273 27.9668 14.2 26.9707C14.4656 27.0039 14.7313 27.0371 15.0301 27.0371C16.657 27.0371 18.1512 26.4727 19.3465 25.543C17.8191 25.5098 16.5242 24.5137 16.0926 23.1191C16.325 23.1523 16.5242 23.1855 16.7566 23.1855C17.0555 23.1855 17.3875 23.1191 17.6531 23.0527C16.0594 22.7207 14.8641 21.3262 14.8641 19.6328V19.5996C15.3289 19.8652 15.8934 19.998 16.4578 20.0312C15.4949 19.4004 14.8973 18.3379 14.8973 17.1426C14.8973 16.4785 15.0633 15.8809 15.3621 15.3828C17.0887 17.4746 19.6785 18.8691 22.5672 19.0352C22.5008 18.7695 22.4676 18.5039 22.4676 18.2383C22.4676 16.3125 24.0281 14.752 25.9539 14.752C26.95 14.752 27.8465 15.1504 28.5105 15.8477C29.2742 15.6816 30.0379 15.3828 30.702 14.9844C30.4363 15.8145 29.9051 16.4785 29.1746 16.9102C29.8719 16.8438 30.5691 16.6445 31.1668 16.3789C30.702 17.0762 30.1043 17.6738 29.4402 18.1719Z" fill="#00BEAE"/>
<a href="https://www.figma.com/design/Nx4sNsAeWJfmVVOXuDSmxJ?node-id=2-2093">
<rect fill="black" fill-opacity="0" x="0.200001" y="-1.275" width="17" height="19.55"/>
</a>
</svg>
