<svg width="78" height="15" viewBox="0 0 78 15" fill="none" xmlns="http://www.w3.org/2000/svg">
<path d="M6.64453 0.492188C6.80859 0.164062 7.07292 0 7.4375 0C7.80208 0 8.06641 0.164062 8.23047 0.492188L10.0078 4.10156L14 4.70312C14.3646 4.73958 14.6016 4.93099 14.7109 5.27734C14.8203 5.6237 14.7474 5.92448 14.4922 6.17969L11.5938 8.99609L12.2773 12.9883C12.332 13.3346 12.2135 13.6081 11.9219 13.8086C11.6302 14.0273 11.3294 14.0547 11.0195 13.8906L7.4375 12.0312L3.85547 13.8906C3.54557 14.0729 3.24479 14.0547 2.95312 13.8359C2.66146 13.6172 2.54297 13.3346 2.59766 12.9883L3.28125 8.99609L0.382812 6.17969C0.127604 5.92448 0.0546875 5.6237 0.164062 5.27734C0.273438 4.93099 0.510417 4.73958 0.875 4.70312L4.86719 4.10156L6.64453 0.492188ZM22.3945 0.492188C22.5586 0.164062 22.8229 0 23.1875 0C23.5521 0 23.8164 0.164062 23.9805 0.492188L25.7578 4.10156L29.75 4.70312C30.1146 4.73958 30.3516 4.93099 30.4609 5.27734C30.5703 5.6237 30.4974 5.92448 30.2422 6.17969L27.3438 8.99609L28.0273 12.9883C28.082 13.3346 27.9635 13.6081 27.6719 13.8086C27.3802 14.0273 27.0794 14.0547 26.7695 13.8906L23.1875 12.0312L19.6055 13.8906C19.2956 14.0729 18.9948 14.0547 18.7031 13.8359C18.4115 13.6172 18.293 13.3346 18.3477 12.9883L19.0312 8.99609L16.1328 6.17969C15.8776 5.92448 15.8047 5.6237 15.9141 5.27734C16.0234 4.93099 16.2604 4.73958 16.625 4.70312L20.6172 4.10156L22.3945 0.492188ZM38.1445 0.492188C38.3086 0.164062 38.5729 0 38.9375 0C39.3021 0 39.5664 0.164062 39.7305 0.492188L41.5078 4.10156L45.5 4.70312C45.8646 4.73958 46.1016 4.93099 46.2109 5.27734C46.3203 5.6237 46.2474 5.92448 45.9922 6.17969L43.0938 8.99609L43.7773 12.9883C43.832 13.3346 43.7135 13.6081 43.4219 13.8086C43.1302 14.0273 42.8294 14.0547 42.5195 13.8906L38.9375 12.0312L35.3555 13.8906C35.0456 14.0729 34.7448 14.0547 34.4531 13.8359C34.1615 13.6172 34.043 13.3346 34.0977 12.9883L34.7812 8.99609L31.8828 6.17969C31.6276 5.92448 31.5547 5.6237 31.6641 5.27734C31.7734 4.93099 32.0104 4.73958 32.375 4.70312L36.3672 4.10156L38.1445 0.492188ZM53.8945 0.492188C54.0586 0.164062 54.3229 0 54.6875 0C55.0521 0 55.3164 0.164062 55.4805 0.492188L57.2578 4.10156L61.25 4.70312C61.6146 4.73958 61.8516 4.93099 61.9609 5.27734C62.0703 5.6237 61.9974 5.92448 61.7422 6.17969L58.8438 8.99609L59.5273 12.9883C59.582 13.3346 59.4635 13.6081 59.1719 13.8086C58.8802 14.0273 58.5794 14.0547 58.2695 13.8906L54.6875 12.0312L51.1055 13.8906C50.7956 14.0729 50.4948 14.0547 50.2031 13.8359C49.9115 13.6172 49.793 13.3346 49.8477 12.9883L50.5312 8.99609L47.6328 6.17969C47.3776 5.92448 47.3047 5.6237 47.4141 5.27734C47.5234 4.93099 47.7604 4.73958 48.125 4.70312L52.1172 4.10156L53.8945 0.492188ZM69.6445 0.492188C69.8086 0.164062 70.0729 0 70.4375 0C70.8021 0 71.0664 0.164062 71.2305 0.492188L73.0078 4.10156L77 4.70312C77.3646 4.73958 77.6016 4.93099 77.7109 5.27734C77.8203 5.6237 77.7474 5.92448 77.4922 6.17969L74.5938 8.99609L75.2773 12.9883C75.332 13.3346 75.2135 13.6081 74.9219 13.8086C74.6302 14.0273 74.3294 14.0547 74.0195 13.8906L70.4375 12.0312L66.8555 13.8906C66.5456 14.0729 66.2448 14.0547 65.9531 13.8359C65.6615 13.6172 65.543 13.3346 65.5977 12.9883L66.2812 8.99609L63.3828 6.17969C63.1276 5.92448 63.0547 5.6237 63.1641 5.27734C63.2734 4.93099 63.5104 4.73958 63.875 4.70312L67.8672 4.10156L69.6445 0.492188Z" fill="#FF9500"/>
</svg>
