<svg width="17" height="17" viewBox="0 0 17 17" fill="none" xmlns="http://www.w3.org/2000/svg">
<path d="M14.0449 2.42383C15.6608 4.01758 16.4688 5.95443 16.4688 8.23438C16.4688 10.5143 15.6608 12.4622 14.0449 14.0781C12.4512 15.6719 10.5143 16.4688 8.23438 16.4688C5.95443 16.4688 4.00651 15.6719 2.39062 14.0781C0.796875 12.4622 0 10.5143 0 8.23438C0 5.95443 0.796875 4.01758 2.39062 2.42383C4.00651 0.807943 5.95443 0 8.23438 0C10.5143 0 12.4512 0.807943 14.0449 2.42383ZM7.27148 12.584L13.3809 6.47461C13.6465 6.23112 13.6465 5.98763 13.3809 5.74414L12.6504 4.98047C12.3848 4.73698 12.1302 4.73698 11.8867 4.98047L6.90625 9.96094L4.58203 7.63672C4.33854 7.39323 4.08398 7.39323 3.81836 7.63672L3.08789 8.40039C2.82227 8.64388 2.82227 8.88737 3.08789 9.13086L6.54102 12.584C6.78451 12.8496 7.02799 12.8496 7.27148 12.584Z" fill="#00BEAE"/>
</svg>
