<svg width="16" height="18" viewBox="0 0 16 18" fill="none" xmlns="http://www.w3.org/2000/svg">
<path d="M15.75 12.6562C15.75 12.9375 15.6445 13.1602 15.4336 13.3242C15.3633 13.582 15.3281 14.0156 15.3281 14.625C15.3281 15.2344 15.3633 15.668 15.4336 15.9258C15.6445 16.1133 15.75 16.3359 15.75 16.5938V17.1562C15.75 17.3906 15.668 17.5898 15.5039 17.7539C15.3398 17.918 15.1406 18 14.9062 18H3.375C2.4375 18 1.64063 17.6719 0.984375 17.0156C0.328125 16.3594 0 15.5625 0 14.625V3.375C0 2.4375 0.328125 1.64063 0.984375 0.984375C1.64063 0.328125 2.4375 0 3.375 0H14.9062C15.1406 0 15.3398 0.0820312 15.5039 0.246094C15.668 0.410156 15.75 0.609375 15.75 0.84375V12.6562ZM4.5 4.71094V5.41406C4.5 5.55469 4.57031 5.625 4.71094 5.625H12.1641C12.3047 5.625 12.375 5.55469 12.375 5.41406V4.71094C12.375 4.57031 12.3047 4.5 12.1641 4.5H4.71094C4.57031 4.5 4.5 4.57031 4.5 4.71094ZM4.5 6.96094V7.66406C4.5 7.80469 4.57031 7.875 4.71094 7.875H12.1641C12.3047 7.875 12.375 7.80469 12.375 7.66406V6.96094C12.375 6.82031 12.3047 6.75 12.1641 6.75H4.71094C4.57031 6.75 4.5 6.82031 4.5 6.96094ZM13.3945 15.75C13.3242 15 13.3242 14.25 13.3945 13.5H3.375C3.07031 13.5 2.80078 13.6172 2.56641 13.8516C2.35547 14.0625 2.25 14.3203 2.25 14.625C2.25 14.9297 2.35547 15.1992 2.56641 15.4336C2.80078 15.6445 3.07031 15.75 3.375 15.75H13.3945Z" fill="#FF9500"/>
</svg>
