<svg width="20" height="15" viewBox="0 0 20 15" fill="none" xmlns="http://www.w3.org/2000/svg">
<path d="M6.79688 14.6094L0.273438 8.125C0.0911458 7.94271 0 7.70833 0 7.42188C0 7.13542 0.0911458 6.90104 0.273438 6.71875L1.71875 5.3125C1.90104 5.10417 2.1224 5 2.38281 5C2.66927 5 2.91667 5.10417 3.125 5.3125L7.5 9.6875L16.875 0.3125C17.0833 0.104167 17.3177 0 17.5781 0C17.8646 0 18.099 0.104167 18.2812 0.3125L19.7266 1.71875C19.9089 1.90104 20 2.13542 20 2.42188C20 2.70833 19.9089 2.94271 19.7266 3.125L8.20312 14.6094C8.02083 14.8177 7.78646 14.9219 7.5 14.9219C7.21354 14.9219 6.97917 14.8177 6.79688 14.6094Z" fill="#FE543D"/>
</svg>
