<svg width="7" height="10" viewBox="0 0 7 10" fill="none" xmlns="http://www.w3.org/2000/svg">
<path d="M6.14282 5.46373L1.9447 9.66185C1.80065 9.8059 1.62573 9.87793 1.41994 9.87793C1.21415 9.87793 1.03923 9.8059 0.895172 9.66185L0.216064 8.95187C0.0720113 8.80782 -1.52588e-05 8.6329 -1.52588e-05 8.42711C-1.52588e-05 8.22132 0.0720113 8.0464 0.216064 7.90234L3.17944 4.93896L0.216064 1.97559C0.0720113 1.83153 -1.52588e-05 1.65661 -1.52588e-05 1.45082C-1.52588e-05 1.24503 0.0720113 1.07011 0.216064 0.926056L0.895172 0.21608C1.03923 0.0720266 1.21415 0 1.41994 0C1.62573 0 1.80065 0.0720266 1.9447 0.21608L6.14282 4.4142C6.28688 4.55825 6.3589 4.73317 6.3589 4.93896C6.3589 5.14476 6.28688 5.31968 6.14282 5.46373Z" fill="white"/>
<a href="https://www.figma.com/design/Nx4sNsAeWJfmVVOXuDSmxJ?node-id=2-2093">
<rect fill="black" fill-opacity="0" y="0.597656" width="7.90234" height="15.8047"/>
</a>
</svg>
