<svg width="13" height="17" viewBox="0 0 13 17" fill="none" xmlns="http://www.w3.org/2000/svg">
<path d="M5.71094 16.668C5.17969 15.8932 4.57096 15.0189 3.88477 14.0449C3.2207 13.071 2.74479 12.3848 2.45703 11.9863C2.16927 11.5879 1.83724 11.1009 1.46094 10.5254C1.08464 9.92773 0.830078 9.50716 0.697266 9.26367C0.586589 9.02018 0.453776 8.71029 0.298828 8.33398C0.166016 7.95768 0.077474 7.63672 0.0332031 7.37109C0.0110677 7.08333 0 6.7513 0 6.375C0 4.60417 0.619792 3.09896 1.85938 1.85938C3.09896 0.619792 4.60417 0 6.375 0C8.14583 0 9.65104 0.619792 10.8906 1.85938C12.1302 3.09896 12.75 4.60417 12.75 6.375C12.75 6.7513 12.7279 7.08333 12.6836 7.37109C12.6615 7.63672 12.5729 7.95768 12.418 8.33398C12.2852 8.71029 12.1523 9.02018 12.0195 9.26367C11.9089 9.50716 11.6654 9.92773 11.2891 10.5254C10.9128 11.1009 10.5807 11.5879 10.293 11.9863C10.0052 12.3848 9.51823 13.071 8.83203 14.0449C8.16797 15.0189 7.57031 15.8932 7.03906 16.668C6.88411 16.8893 6.66276 17 6.375 17C6.08724 17 5.86589 16.8893 5.71094 16.668ZM4.48242 8.26758C5.01367 8.77669 5.64453 9.03125 6.375 9.03125C7.10547 9.03125 7.72526 8.77669 8.23438 8.26758C8.76562 7.73633 9.03125 7.10547 9.03125 6.375C9.03125 5.64453 8.76562 5.02474 8.23438 4.51562C7.72526 3.98438 7.10547 3.71875 6.375 3.71875C5.64453 3.71875 5.01367 3.98438 4.48242 4.51562C3.97331 5.02474 3.71875 5.64453 3.71875 6.375C3.71875 7.10547 3.97331 7.73633 4.48242 8.26758Z" fill="white"/>
</svg>
