<svg width="17" height="16" viewBox="0 0 17 16" fill="none" xmlns="http://www.w3.org/2000/svg">
<path d="M12.1875 6.5625C12.1875 7.07031 12.002 7.50977 11.6309 7.88086C11.2598 8.25195 10.8203 8.4375 10.3125 8.4375H4.74609L2.34375 10.2539C2.24609 10.332 2.13867 10.3418 2.02148 10.2832C1.92383 10.2246 1.875 10.1367 1.875 10.0195V8.4375C1.36719 8.4375 0.927734 8.25195 0.556641 7.88086C0.185547 7.50977 0 7.07031 0 6.5625V1.875C0 1.36719 0.185547 0.927734 0.556641 0.556641C0.927734 0.185547 1.36719 0 1.875 0H10.3125C10.8203 0 11.2598 0.185547 11.6309 0.556641C12.002 0.927734 12.1875 1.36719 12.1875 1.875V6.5625ZM15 4.6875C15.5078 4.6875 15.9473 4.87305 16.3184 5.24414C16.6895 5.61523 16.875 6.05469 16.875 6.5625V11.25C16.875 11.7578 16.6895 12.1973 16.3184 12.5684C15.9473 12.9395 15.5078 13.125 15 13.125H14.0625V14.707C14.0625 14.8242 14.0039 14.9121 13.8867 14.9707C13.7891 15.0293 13.6914 15.0195 13.5938 14.9414L11.1914 13.125H7.5C6.99219 13.125 6.55273 12.9395 6.18164 12.5684C5.81055 12.1973 5.625 11.7578 5.625 11.25V9.375H10.3125C11.0938 9.375 11.7578 9.10156 12.3047 8.55469C12.8516 8.00781 13.125 7.34375 13.125 6.5625V4.6875H15Z" fill="#FF9E0E"/>
</svg>
