<svg width="15" height="17" viewBox="0 0 15 17" fill="none" xmlns="http://www.w3.org/2000/svg">
    <path
        d="M11.6875 10.625C12.5729 10.625 13.3255 10.9349 13.9453 11.5547C14.5651 12.1745 14.875 12.9271 14.875 13.8125C14.875 14.6979 14.5651 15.4505 13.9453 16.0703C13.3255 16.6901 12.5729 17 11.6875 17C10.8021 17 10.0495 16.6901 9.42968 16.0703C8.80989 15.4505 8.49999 14.6979 8.49999 13.8125C8.49999 13.569 8.52213 13.3366 8.5664 13.1152L5.17968 10.9902C4.60416 11.4551 3.9401 11.6875 3.18749 11.6875C2.30207 11.6875 1.54947 11.3776 0.929679 10.7578C0.309887 10.138 -8.58307e-06 9.38542 -8.58307e-06 8.5C-8.58307e-06 7.61458 0.309887 6.86198 0.929679 6.24219C1.54947 5.6224 2.30207 5.3125 3.18749 5.3125C3.9401 5.3125 4.60416 5.54492 5.17968 6.00977L8.5664 3.88477C8.52213 3.66341 8.49999 3.43099 8.49999 3.1875C8.49999 2.30208 8.80989 1.54948 9.42968 0.929688C10.0495 0.309896 10.8021 0 11.6875 0C12.5729 0 13.3255 0.309896 13.9453 0.929688C14.5651 1.54948 14.875 2.30208 14.875 3.1875C14.875 4.07292 14.5651 4.82552 13.9453 5.44531C13.3255 6.0651 12.5729 6.375 11.6875 6.375C10.9349 6.375 10.2708 6.14258 9.6953 5.67773L6.30859 7.80273C6.35286 8.02409 6.37499 8.25651 6.37499 8.5C6.37499 8.74349 6.35286 8.97591 6.30859 9.19727L9.6953 11.3223C10.2708 10.8574 10.9349 10.625 11.6875 10.625Z"
        fill="white" />
</svg>