<svg width="25" height="28" viewBox="0 0 25 35" fill="none" xmlns="http://www.w3.org/2000/svg">
<path d="M17.1719 14.9766C15.8229 16.3255 14.1823 17 12.25 17C10.3177 17 8.65885 16.3255 7.27344 14.9766C5.92448 13.5911 5.25 11.9323 5.25 10C5.25 8.06771 5.92448 6.42708 7.27344 5.07812C8.65885 3.69271 10.3177 3 12.25 3C14.1823 3 15.8229 3.69271 17.1719 5.07812C18.5573 6.42708 19.25 8.06771 19.25 10C19.25 11.9323 18.5573 13.5911 17.1719 14.9766ZM17.1719 18.75C19.1771 18.75 20.8906 19.4792 22.3125 20.9375C23.7708 22.3594 24.5 24.0729 24.5 26.0781V28.375C24.5 29.1042 24.2448 29.724 23.7344 30.2344C23.224 30.7448 22.6042 31 21.875 31H2.625C1.89583 31 1.27604 30.7448 0.765625 30.2344C0.255208 29.724 0 29.1042 0 28.375V26.0781C0 24.0729 0.710938 22.3594 2.13281 20.9375C3.59115 19.4792 5.32292 18.75 7.32812 18.75H8.25781C9.53385 19.3333 10.8646 19.625 12.25 19.625C13.6354 19.625 14.9661 19.3333 16.2422 18.75H17.1719Z" fill="#333931"/>
<a href="https://www.figma.com/design/FQMCtNuVqsHCfAIsCKE35l/CourseHub---University--Online-Courses--School---Education-Figma-Template--Community-?node-id=6-1519">
<rect fill="black" fill-opacity="0" width="24.5" height="28"/>
</a>
</svg>
