<svg width="37" height="33" viewBox="0 0 37 33" fill="none" xmlns="http://www.w3.org/2000/svg">
<path d="M36.2267 3.42001H33.44V2.02667C33.44 1.85778 33.3767 1.71001 33.25 1.58334C33.1233 1.45667 32.9756 1.39334 32.8067 1.39334C30.02 1.39334 27.74 1.52001 25.9667 1.77334C24.5311 1.94223 22.8844 2.28001 21.0267 2.78667V2.66001C21.0267 1.90001 20.7733 1.26667 20.2667 0.760006C19.76 0.25334 19.1267 7.62939e-06 18.3667 7.62939e-06C17.6067 7.62939e-06 16.9733 0.25334 16.4667 0.760006C15.96 1.26667 15.7067 1.90001 15.7067 2.66001V2.78667C13.8489 2.28001 12.2022 1.94223 10.7667 1.77334C8.99333 1.52001 6.71333 1.39334 3.92667 1.39334C3.75778 1.39334 3.61 1.45667 3.48333 1.58334C3.35667 1.71001 3.29333 1.85778 3.29333 2.02667V3.42001H0.506667C0.337778 3.42001 0.211111 3.48334 0.126667 3.61001C0.0422222 3.73667 0 3.88445 0 4.05334V29.64C0 29.8089 0.0422222 29.9567 0.126667 30.0833C0.211111 30.21 0.337778 30.2733 0.506667 30.2733H15.2C15.2 30.8645 15.39 31.3289 15.77 31.6667C16.15 32.0045 16.5933 32.1733 17.1 32.1733H19.6333C20.2244 32.1733 20.6889 32.0045 21.0267 31.6667C21.3644 31.3289 21.5333 30.8645 21.5333 30.2733H36.2267C36.3956 30.2733 36.5222 30.21 36.6067 30.0833C36.6911 29.9567 36.7333 29.8089 36.7333 29.64V4.05334C36.7333 3.88445 36.6911 3.73667 36.6067 3.61001C36.5222 3.48334 36.3956 3.42001 36.2267 3.42001ZM32.3 2.53334V26.22C26.5578 26.22 22.1244 26.98 19 28.5V20.6467H30.5267C30.78 20.6467 30.9489 20.5833 31.0333 20.4567C31.1178 20.33 31.16 20.1822 31.16 20.0133C31.0756 19.0845 30.78 18.2822 30.2733 17.6067C29.7667 16.9311 29.1333 16.4245 28.3733 16.0867C28.88 15.58 29.1333 14.9678 29.1333 14.25C29.1333 13.5322 28.88 12.8989 28.3733 12.35C27.8667 11.8011 27.2333 11.5267 26.4733 11.5267L25.9667 11.6533C25.46 11.0622 24.8689 10.64 24.1933 10.3867C24.7844 9.79556 25.08 9.14112 25.08 8.42334C25.08 7.70556 24.8056 7.07223 24.2567 6.52334C23.7078 5.97445 23.0533 5.70001 22.2933 5.70001L21.9133 5.82667C21.4911 5.23556 20.9422 4.81334 20.2667 4.56001L20.6467 4.05334C22.6733 3.54667 24.32 3.16667 25.5867 2.91334C27.36 2.74445 29.5978 2.61778 32.3 2.53334ZM14.06 18.1133C13.5533 17.1845 12.8356 16.5089 11.9067 16.0867C12.2444 15.7489 12.4556 15.3267 12.54 14.82H15.58C15.6644 15.3267 15.9178 15.7489 16.34 16.0867C15.3267 16.5089 14.5667 17.1845 14.06 18.1133ZM8.48667 14.1867C8.48667 13.7645 8.63444 13.4267 8.93 13.1733C9.22556 12.92 9.58444 12.7933 10.0067 12.7933C10.4289 12.7933 10.7878 12.92 11.0833 13.1733C11.3789 13.4267 11.5267 13.7645 11.5267 14.1867C11.5267 14.6089 11.3789 14.9678 11.0833 15.2633C10.7878 15.5589 10.4289 15.7067 10.0067 15.7067C9.58444 15.7067 9.22556 15.5589 8.93 15.2633C8.63444 14.9678 8.48667 14.6089 8.48667 14.1867ZM12.54 8.48667C12.54 8.06445 12.6878 7.70556 12.9833 7.41001C13.2789 7.11445 13.6378 6.96667 14.06 6.96667C14.4822 6.96667 14.8411 7.11445 15.1367 7.41001C15.4322 7.70556 15.58 8.06445 15.58 8.48667C15.58 8.9089 15.4322 9.24667 15.1367 9.50001C14.8411 9.75334 14.4822 9.88001 14.06 9.88001C13.6378 9.88001 13.2789 9.75334 12.9833 9.50001C12.6878 9.24667 12.54 8.9089 12.54 8.48667ZM18.3667 5.32001C19.2956 5.32001 20.0978 5.61556 20.7733 6.20667C20.1822 6.62889 19.8444 7.17778 19.76 7.85334H16.72C16.5511 7.26223 16.2556 6.75556 15.8333 6.33334C16.5089 5.65779 17.3533 5.32001 18.3667 5.32001ZM22.2933 18.1133C21.7867 17.1845 21.0689 16.5089 20.14 16.0867C20.4778 15.7489 20.7311 15.3267 20.9 14.82H23.8133C23.9822 15.3267 24.2356 15.7489 24.5733 16.0867C23.56 16.5089 22.8 17.1845 22.2933 18.1133ZM18.24 15.7067C17.8178 15.7067 17.4589 15.5589 17.1633 15.2633C16.8678 14.9678 16.72 14.6089 16.72 14.1867C16.72 13.7645 16.8678 13.4267 17.1633 13.1733C17.4589 12.92 17.8178 12.7933 18.24 12.7933C18.6622 12.7933 19.0211 12.92 19.3167 13.1733C19.6122 13.4267 19.76 13.7645 19.76 14.1867C19.76 14.6089 19.6122 14.9678 19.3167 15.2633C19.0211 15.5589 18.6622 15.7067 18.24 15.7067ZM15.96 10.3867C16.3822 9.96445 16.6356 9.50001 16.72 8.99334H17.7333V11.5267V11.6533C17.2267 11.0622 16.6356 10.64 15.96 10.3867ZM19.76 8.99334C19.8444 9.50001 20.0556 9.96445 20.3933 10.3867C19.8867 10.64 19.4222 10.9778 19 11.4V8.99334H19.76ZM26.4733 16.9733C27.2333 16.9733 27.93 17.2056 28.5633 17.67C29.1967 18.1345 29.64 18.7045 29.8933 19.38H23.0533C23.3067 18.7045 23.75 18.1345 24.3833 17.67C25.0167 17.2056 25.7133 16.9733 26.4733 16.9733ZM26.4733 15.7067C26.0511 15.7067 25.6922 15.5589 25.3967 15.2633C25.1011 14.9678 24.9533 14.6089 24.9533 14.1867C24.9533 13.7645 25.1011 13.4267 25.3967 13.1733C25.6922 12.92 26.0511 12.7933 26.4733 12.7933C26.8956 12.7933 27.2544 12.92 27.55 13.1733C27.8456 13.4267 27.9933 13.7645 27.9933 14.1867C27.9933 14.6089 27.8456 14.9678 27.55 15.2633C27.2544 15.5589 26.8956 15.7067 26.4733 15.7067ZM23.8133 13.68H20.9C20.7311 13.0045 20.3933 12.4978 19.8867 12.16C20.5622 11.4845 21.3856 11.1467 22.3567 11.1467C23.3278 11.1467 24.1511 11.4845 24.8267 12.16C24.32 12.4978 23.9822 13.0045 23.8133 13.68ZM22.2933 9.88001C21.8711 9.88001 21.5122 9.75334 21.2167 9.50001C20.9211 9.24667 20.7733 8.9089 20.7733 8.48667C20.7733 8.06445 20.9211 7.70556 21.2167 7.41001C21.5122 7.11445 21.8711 6.96667 22.2933 6.96667C22.7156 6.96667 23.0744 7.11445 23.37 7.41001C23.6656 7.70556 23.8133 8.06445 23.8133 8.48667C23.8133 8.9089 23.6656 9.24667 23.37 9.50001C23.0744 9.75334 22.7156 9.88001 22.2933 9.88001ZM16.5933 12.16C16.0867 12.4978 15.7489 13.0045 15.58 13.68H12.54C12.4556 13.0045 12.16 12.4978 11.6533 12.16C12.3289 11.4845 13.1522 11.1467 14.1233 11.1467C15.0944 11.1467 15.9178 11.4845 16.5933 12.16ZM10.0067 16.9733C10.7667 16.9733 11.4633 17.2056 12.0967 17.67C12.73 18.1345 13.1733 18.7045 13.4267 19.38H6.58667C6.84 18.7045 7.26222 18.1345 7.85333 17.67C8.44444 17.2056 9.16222 16.9733 10.0067 16.9733ZM18.24 16.9733C19 16.9733 19.6967 17.2056 20.33 17.67C20.9633 18.1345 21.4067 18.7045 21.66 19.38H14.82C15.0733 18.7045 15.4956 18.1345 16.0867 17.67C16.6778 17.2056 17.3956 16.9733 18.24 16.9733ZM18.3667 1.14001C18.7889 1.14001 19.1478 1.28778 19.4433 1.58334C19.7389 1.8789 19.8867 2.23779 19.8867 2.66001C19.8867 3.08223 19.7389 3.44112 19.4433 3.73667C19.1478 4.03223 18.7889 4.18001 18.3667 4.18001C17.9444 4.18001 17.5856 4.03223 17.29 3.73667C16.9944 3.44112 16.8467 3.08223 16.8467 2.66001C16.8467 2.23779 16.9944 1.8789 17.29 1.58334C17.5856 1.28778 17.9444 1.14001 18.3667 1.14001ZM4.43333 2.53334C7.13556 2.61778 9.37333 2.74445 11.1467 2.91334C12.4133 3.16667 14.06 3.54667 16.0867 4.05334L16.4667 4.56001C15.7911 4.81334 15.2 5.23556 14.6933 5.82667C14.5244 5.74223 14.3133 5.70001 14.06 5.70001C13.3 5.70001 12.6667 5.97445 12.16 6.52334C11.6533 7.07223 11.4 7.70556 11.4 8.42334C11.4 9.14112 11.6533 9.79556 12.16 10.3867C11.4844 10.64 10.9356 11.0622 10.5133 11.6533L10.0067 11.5267C9.24667 11.5267 8.59222 11.8011 8.04333 12.35C7.49444 12.8989 7.22 13.5322 7.22 14.25C7.22 14.9678 7.51556 15.58 8.10667 16.0867C7.34667 16.4245 6.71333 16.9311 6.20667 17.6067C5.7 18.2822 5.36222 19.0845 5.19333 20.0133C5.19333 20.1822 5.25667 20.33 5.38333 20.4567C5.51 20.5833 5.65778 20.6467 5.82667 20.6467H17.7333V28.5C14.6089 26.98 10.1756 26.22 4.43333 26.22V2.53334ZM35.5933 29.1333H21.0267C20.8578 29.1333 20.71 29.1967 20.5833 29.3233C20.4567 29.45 20.3933 29.5556 20.3933 29.64V30.2733C20.3933 30.5267 20.33 30.7167 20.2033 30.8433C20.0767 30.97 19.8867 31.0333 19.6333 31.0333H17.1C16.9311 31.0333 16.7622 30.97 16.5933 30.8433C16.4244 30.7167 16.34 30.5267 16.34 30.2733V29.64C16.34 29.5556 16.2767 29.45 16.15 29.3233C16.0233 29.1967 15.9178 29.1333 15.8333 29.1333H1.14V4.68667H3.29333V26.7267C3.29333 26.8956 3.35667 27.0433 3.48333 27.17C3.61 27.2967 3.75778 27.36 3.92667 27.36C10.26 27.36 14.9889 28.2467 18.1133 30.02C18.1978 30.1045 18.2822 30.1467 18.3667 30.1467C18.4511 30.1467 18.5356 30.1045 18.62 30.02C21.7444 28.2467 26.4733 27.36 32.8067 27.36C32.9756 27.36 33.1233 27.2967 33.25 27.17C33.3767 27.0433 33.44 26.8956 33.44 26.7267V4.68667H35.5933V29.1333ZM30.4 22.6733C30.4 22.8422 30.3367 22.99 30.21 23.1167C30.0833 23.2433 29.9356 23.3067 29.7667 23.3067C26.5578 23.4756 23.8556 23.8978 21.66 24.5733H21.4067C21.1533 24.5733 20.9844 24.4678 20.9 24.2567C20.8156 24.0456 20.8156 23.8767 20.9 23.75C20.9844 23.6233 21.1111 23.5178 21.28 23.4333C23.6444 22.7578 26.4733 22.3356 29.7667 22.1667C29.9356 22.1667 30.0622 22.2089 30.1467 22.2933C30.2311 22.3778 30.3156 22.5045 30.4 22.6733ZM15.8333 24.1933C15.7489 24.4467 15.58 24.5733 15.3267 24.5733H15.0733C12.8778 23.8978 10.1756 23.4756 6.96667 23.3067C6.79778 23.3067 6.65 23.2433 6.52333 23.1167C6.39667 22.99 6.35444 22.8422 6.39667 22.6733C6.43889 22.5045 6.50222 22.3778 6.58667 22.2933C6.67111 22.2089 6.79778 22.1667 6.96667 22.1667C10.26 22.3356 13.0889 22.7578 15.4533 23.4333C15.6222 23.5178 15.7489 23.6233 15.8333 23.75C15.9178 23.8767 15.9178 24.0245 15.8333 24.1933Z" fill="#0E2A46"/>
</svg>
