<svg width="34" height="37" viewBox="0 0 34 37" fill="none" xmlns="http://www.w3.org/2000/svg">
<path d="M29.26 23.3067C29.6822 22.8001 30.02 22.209 30.2733 21.5334C30.5267 20.8578 30.6533 20.1823 30.6533 19.5067C30.6533 18.409 30.2733 17.4801 29.5133 16.7201C28.7533 15.9601 27.8244 15.5801 26.7267 15.5801C25.6289 15.5801 24.7 15.9601 23.94 16.7201C23.18 17.4801 22.8 18.4301 22.8 19.5701C22.8 20.7101 23.0956 21.7445 23.6867 22.6734L24.0667 23.3067C23.1378 23.3067 22.2933 23.6023 21.5333 24.1934C21.1956 24.109 20.8578 24.0667 20.52 24.0667H19.8867C20.3089 23.729 20.6467 23.3067 20.9 22.8001C21.7444 21.449 22.1667 19.8867 22.1667 18.1134C22.1667 17.1845 21.9344 16.2978 21.47 15.4534C21.0056 14.609 20.3511 13.9334 19.5067 13.4267C18.6622 12.9201 17.7333 12.6667 16.72 12.6667C15.7067 12.6667 14.7778 12.9201 13.9333 13.4267C13.0889 13.9334 12.4344 14.609 11.97 15.4534C11.5056 16.2978 11.2733 17.1845 11.2733 18.1134C11.2733 19.8867 11.6956 21.449 12.54 22.8001C12.7933 23.2223 13.1311 23.6445 13.5533 24.0667H12.92C12.5822 24.0667 12.2444 24.109 11.9067 24.1934C11.1467 23.6023 10.3022 23.3067 9.37333 23.3067L9.75333 22.6734C10.3444 21.7445 10.64 20.7101 10.64 19.5701C10.64 18.4301 10.26 17.4801 9.5 16.7201C8.74 15.9601 7.81111 15.5801 6.71333 15.5801C5.61556 15.5801 4.68667 15.9601 3.92667 16.7201C3.16667 17.4801 2.78667 18.409 2.78667 19.5067C2.78667 20.1823 2.91333 20.8578 3.16667 21.5334C3.42 22.209 3.75778 22.8001 4.18 23.3067C2.99778 23.3067 2.00556 23.6867 1.20333 24.4467C0.401111 25.2067 0 26.1356 0 27.2334V31.7934C0 31.9623 0.0422222 32.1101 0.126667 32.2367C0.211111 32.3634 0.337778 32.4267 0.506667 32.4267H7.09333V36.2267C7.09333 36.3956 7.15667 36.5223 7.28333 36.6067C7.41 36.6912 7.55778 36.7334 7.72667 36.7334H25.7133C25.8822 36.7334 26.03 36.6912 26.1567 36.6067C26.2833 36.5223 26.3467 36.3956 26.3467 36.2267V32.4267H32.9333C33.1022 32.4267 33.2289 32.3634 33.3133 32.2367C33.3978 32.1101 33.44 31.9623 33.44 31.7934V27.2334C33.44 26.1356 33.0389 25.2067 32.2367 24.4467C31.4344 23.6867 30.4422 23.3067 29.26 23.3067ZM23.94 19.5067C23.94 18.7467 24.2144 18.0923 24.7633 17.5434C25.3122 16.9945 25.9667 16.7201 26.7267 16.7201C27.4867 16.7201 28.1411 16.9945 28.69 17.5434C29.2389 18.0923 29.5133 18.789 29.5133 19.6334C29.5133 20.4778 29.3022 21.2378 28.88 21.9134C28.3733 22.8423 27.6556 23.3067 26.7267 23.3067C25.7978 23.3067 25.08 22.8423 24.5733 21.9134C24.1511 21.2378 23.94 20.4356 23.94 19.5067ZM16.72 13.9334C17.9022 13.9334 18.9156 14.3345 19.76 15.1367C20.6044 15.939 21.0267 16.9312 21.0267 18.1134V18.2401C20.0978 18.1556 19.2956 17.9867 18.62 17.7334C17.7756 17.3956 16.8889 16.889 15.96 16.2134C15.7911 16.0445 15.58 16.0445 15.3267 16.2134L12.4133 17.8601C12.4978 16.7623 12.9622 15.8334 13.8067 15.0734C14.6511 14.3134 15.6222 13.9334 16.72 13.9334ZM13.5533 22.1667C13.0467 21.3223 12.7089 20.3512 12.54 19.2534L15.58 17.3534C16.5089 18.029 17.4378 18.5356 18.3667 18.8734C19.0422 19.1267 19.8867 19.3378 20.9 19.5067C20.7311 20.5201 20.3933 21.4067 19.8867 22.1667C19.1267 23.4334 18.0711 24.0667 16.72 24.0667C15.3689 24.0667 14.3133 23.4334 13.5533 22.1667ZM3.92667 19.5067C3.92667 18.7467 4.20111 18.0923 4.75 17.5434C5.29889 16.9945 5.95333 16.7201 6.71333 16.7201C7.47333 16.7201 8.12778 16.9945 8.67667 17.5434C9.22556 18.0923 9.5 18.789 9.5 19.6334C9.5 20.4778 9.28889 21.2378 8.86667 21.9134C8.36 22.8423 7.64222 23.3067 6.71333 23.3067C5.78444 23.3067 5.06667 22.8423 4.56 21.9134C4.13778 21.2378 3.92667 20.4356 3.92667 19.5067ZM1.14 31.2867V27.2334C1.14 26.4734 1.43556 25.8401 2.02667 25.3334C2.61778 24.8267 3.33556 24.5734 4.18 24.5734H9.37333C9.71111 24.5734 10.0067 24.6156 10.26 24.7001C9.33111 25.1223 8.57111 25.7767 7.98 26.6634C7.38889 27.5501 7.09333 28.5001 7.09333 29.5134V31.2867H1.14ZM25.2067 35.5934H22.1667V31.9201C22.1667 31.7512 22.1033 31.6034 21.9767 31.4767C21.85 31.3501 21.7022 31.2867 21.5333 31.2867C21.3644 31.2867 21.2378 31.3501 21.1533 31.4767C21.0689 31.6034 21.0267 31.7512 21.0267 31.9201V35.5934H12.4133V31.9201C12.4133 31.7512 12.3711 31.6034 12.2867 31.4767C12.2022 31.3501 12.0756 31.2867 11.9067 31.2867C11.7378 31.2867 11.59 31.3501 11.4633 31.4767C11.3367 31.6034 11.2733 31.7512 11.2733 31.9201V35.5934H8.23333V29.5134C8.23333 28.3312 8.69778 27.3178 9.62667 26.4734C10.5556 25.629 11.6533 25.2067 12.92 25.2067H20.52C21.7867 25.2067 22.8844 25.629 23.8133 26.4734C24.7422 27.3178 25.2067 28.3312 25.2067 29.5134V35.5934ZM32.3 31.2867H26.3467V29.5134C26.3467 28.5001 26.0511 27.5501 25.46 26.6634C24.8689 25.7767 24.1089 25.1223 23.18 24.7001C23.4333 24.6156 23.7289 24.5734 24.0667 24.5734H29.26C30.1044 24.5734 30.8222 24.8267 31.4133 25.3334C32.0044 25.8401 32.3 26.4734 32.3 27.2334V31.2867ZM13.4267 7.0934L12.92 10.2601C12.92 10.5134 13.0044 10.7034 13.1733 10.8301C13.3422 10.9567 13.5533 10.9778 13.8067 10.8934L16.72 9.3734L19.6333 10.8934C19.8867 10.9778 20.0978 10.9567 20.2667 10.8301C20.4356 10.7034 20.52 10.5134 20.52 10.2601L20.0133 7.0934L22.2933 4.68673C22.4622 4.51785 22.5044 4.32784 22.42 4.11673C22.3356 3.90562 22.1667 3.75784 21.9133 3.6734L18.7467 3.16673L17.2267 0.253399C17.1422 0.0845108 16.9733 6.48499e-05 16.72 6.48499e-05C16.4667 6.48499e-05 16.2978 0.0845108 16.2133 0.253399L14.6933 3.16673L11.5267 3.6734C11.2733 3.75784 11.1044 3.90562 11.02 4.11673C10.9356 4.32784 10.9778 4.51785 11.1467 4.68673L13.4267 7.0934ZM15.2 4.30673C15.3689 4.22229 15.4956 4.09562 15.58 3.92673L16.72 1.7734L17.86 3.92673C17.9444 4.09562 18.0711 4.22229 18.24 4.30673L20.6467 4.68673L19 6.46007C18.8311 6.54451 18.7467 6.7134 18.7467 6.96673L19.1267 9.24673L16.9733 8.2334C16.8044 8.14895 16.6356 8.14895 16.4667 8.2334L14.3133 9.24673L14.6933 6.96673C14.6933 6.7134 14.6089 6.54451 14.44 6.46007L12.7933 4.68673L15.2 4.30673ZM2.40667 7.98007L2.02667 10.2601C2.02667 10.5134 2.13222 10.7034 2.34333 10.8301C2.55444 10.9567 2.74444 10.9778 2.91333 10.8934L4.94 9.88007L6.96667 10.8934C7.13556 10.9778 7.32556 10.9567 7.53667 10.8301C7.74778 10.7034 7.85333 10.5134 7.85333 10.2601L7.47333 7.98007L8.99333 6.46007C9.16222 6.29118 9.22556 6.08006 9.18333 5.82673C9.14111 5.5734 8.99333 5.44673 8.74 5.44673L6.46 5.06673L5.44667 3.04007C5.36222 2.87118 5.19333 2.78673 4.94 2.78673C4.68667 2.78673 4.51778 2.87118 4.43333 3.04007L3.42 5.06673L1.14 5.44673C0.886667 5.44673 0.738889 5.5734 0.696667 5.82673C0.654444 6.08006 0.717778 6.29118 0.886667 6.46007L2.40667 7.98007ZM3.8 6.20673C4.05333 6.12229 4.22222 5.99562 4.30667 5.82673L4.94 4.56007L5.57333 5.82673C5.65778 5.99562 5.78444 6.12229 5.95333 6.20673L7.34667 6.46007L6.46 7.4734C6.29111 7.55784 6.20667 7.68451 6.20667 7.8534L6.46 9.24673L5.19333 8.74006C5.02444 8.65562 4.85556 8.65562 4.68667 8.74006L3.42 9.24673L3.67333 7.8534C3.67333 7.68451 3.58889 7.55784 3.42 7.4734L2.53333 6.46007L3.8 6.20673ZM25.9667 7.98007L25.5867 10.2601C25.5867 10.5134 25.6922 10.7034 25.9033 10.8301C26.1144 10.9567 26.3044 10.9778 26.4733 10.8934L28.5 9.88007L30.5267 10.8934C30.6956 10.9778 30.8856 10.9567 31.0967 10.8301C31.3078 10.7034 31.4133 10.5134 31.4133 10.2601L31.0333 7.98007L32.5533 6.46007C32.7222 6.29118 32.7856 6.08006 32.7433 5.82673C32.7011 5.5734 32.5533 5.44673 32.3 5.44673L30.02 5.06673L29.0067 3.04007C28.9222 2.87118 28.7533 2.78673 28.5 2.78673C28.2467 2.78673 28.0778 2.87118 27.9933 3.04007L26.98 5.06673L24.7 5.44673C24.4467 5.44673 24.2989 5.5734 24.2567 5.82673C24.2144 6.08006 24.2778 6.29118 24.4467 6.46007L25.9667 7.98007ZM27.4867 6.20673C27.6556 6.12229 27.7822 5.99562 27.8667 5.82673L28.5 4.56007L29.1333 5.82673C29.2178 5.99562 29.3867 6.12229 29.64 6.20673L30.9067 6.46007L30.02 7.4734C29.8511 7.55784 29.7667 7.68451 29.7667 7.8534L30.02 9.24673L28.7533 8.74006C28.5844 8.65562 28.4156 8.65562 28.2467 8.74006L26.98 9.24673L27.2333 7.8534C27.2333 7.68451 27.1489 7.55784 26.98 7.4734L26.0933 6.46007L27.4867 6.20673Z" fill="#0E2A46"/>
</svg>
