<svg width="37" height="37" viewBox="0 0 37 37" fill="none" xmlns="http://www.w3.org/2000/svg">
<path d="M36.6489 19.8866L31.4556 10.7666C31.2867 10.5133 31.0967 10.3655 30.8856 10.3233C30.6744 10.2811 30.4844 10.3022 30.3156 10.3866L28.4156 11.5266V4.43328L24.6156 0.126614L24.3622 -4.95911e-05H9.54222C9.20444 -4.95911e-05 8.93 0.105503 8.71889 0.316616C8.50778 0.527725 8.40222 0.759949 8.40222 1.01328V12.7933L6.50222 11.6533C6.33333 11.5688 6.14333 11.5477 5.93222 11.59C5.72111 11.6322 5.53111 11.7377 5.36222 11.9066L0.168889 21.1533C0 21.3222 -0.0422222 21.5333 0.0422222 21.7866C0.126667 22.04 0.253333 22.2088 0.422222 22.2933L4.72889 24.8266C5.40444 25.4177 5.99556 26.0933 6.50222 26.8533L5.10889 29.3866C4.85556 29.8088 4.75 30.2733 4.79222 30.7799C4.83444 31.2866 5.02444 31.7088 5.36222 32.0466C5.7 32.3844 6.10111 32.5955 6.56556 32.6799C7.03 32.7644 7.51556 32.7222 8.02222 32.5533C8.19111 33.1444 8.59222 33.5877 9.22556 33.8833C9.85889 34.1788 10.4711 34.1577 11.0622 33.8199C11.2311 34.4111 11.59 34.8333 12.1389 35.0866C12.6878 35.3399 13.2156 35.4244 13.7222 35.3399C13.9756 35.2555 14.2289 35.1288 14.4822 34.9599C14.6511 35.3822 14.9256 35.7199 15.3056 35.9733C15.6856 36.2266 16.0867 36.3533 16.5089 36.3533C17.3533 36.3533 17.9867 35.9733 18.4089 35.2133L20.4356 36.4799C20.8578 36.7333 21.3222 36.8388 21.8289 36.7966C22.3356 36.7544 22.8 36.5644 23.2222 36.2266C23.6444 35.8888 23.94 35.4877 24.1089 35.0233C24.2778 34.5588 24.2778 34.0733 24.1089 33.5666V33.3133H24.3622C25.0378 33.1444 25.5444 32.7433 25.8822 32.1099C26.22 31.4766 26.3044 30.8222 26.1356 30.1466L26.0089 30.0199C26.7689 29.8511 27.36 29.4288 27.7822 28.7533C28.2044 28.0777 28.2889 27.36 28.0356 26.5999C28.7956 26.4311 29.3444 26.0088 29.6822 25.3333L29.9356 25.08C30.1889 24.9111 30.5267 24.6366 30.9489 24.2566C31.3711 23.8766 31.6244 23.6866 31.7089 23.6866C31.7933 23.6866 31.8778 23.6444 31.9622 23.5599L36.3956 21.0266C36.5644 20.9422 36.6911 20.7944 36.7756 20.5833C36.86 20.3722 36.8178 20.1399 36.6489 19.8866ZM24.8689 2.02662L26.5156 3.79995H24.8689V2.02662ZM9.54222 1.13995H23.6022V4.43328C23.6022 4.60217 23.6656 4.74995 23.7922 4.87662C23.9189 5.00328 24.0667 5.06662 24.2356 5.06662H27.2756V12.16L26.0089 12.92C24.7422 12.8355 23.3911 12.92 21.9556 13.1733C20.3511 13.3422 19.0422 13.68 18.0289 14.1866L17.3956 14.44C17.0578 14.5244 16.7622 14.6511 16.5089 14.82C14.3978 14.0599 12.4978 13.8066 10.8089 14.0599L9.54222 13.4266V1.13995ZM4.85556 23.4333L1.30889 21.4066L6.24889 12.92L9.79556 14.9466L4.85556 23.4333ZM8.14889 30.6533L7.89556 31.0333C7.81111 31.2866 7.62111 31.4555 7.32556 31.5399C7.03 31.6244 6.75556 31.5822 6.50222 31.4133C6.24889 31.2444 6.08 31.0333 5.99556 30.7799C5.91111 30.5266 5.95333 30.2733 6.12222 30.0199L8.27556 26.2199C8.36 25.9666 8.55 25.7977 8.84556 25.7133C9.14111 25.6288 9.41556 25.6711 9.66889 25.84C9.92222 26.0088 10.0911 26.2411 10.1756 26.5366C10.26 26.8322 10.2178 27.1066 10.0489 27.36L8.14889 30.6533ZM11.1889 32.0466L11.0622 32.2999C10.8933 32.5533 10.6611 32.7222 10.3656 32.8066C10.07 32.8911 9.79556 32.8699 9.54222 32.7433C9.28889 32.6166 9.12 32.4055 9.03556 32.1099C8.95111 31.8144 8.99333 31.5399 9.16222 31.2866L11.0622 27.8666C11.2311 27.6133 11.4633 27.4655 11.7589 27.4233C12.0544 27.3811 12.3289 27.4233 12.5822 27.55C12.8356 27.6766 13.0044 27.8877 13.0889 28.1833C13.1733 28.4788 13.1311 28.7533 12.9622 29.0066L11.1889 32.0466ZM14.1022 33.6933C13.9333 33.9466 13.7222 34.1155 13.4689 34.1999C13.2156 34.2844 12.9411 34.2422 12.6456 34.0733C12.35 33.9044 12.1811 33.6722 12.1389 33.3766C12.0967 33.0811 12.1178 32.8066 12.2022 32.5533L13.9756 29.6399C14.1444 29.3866 14.3767 29.2177 14.6722 29.1333C14.9678 29.0488 15.2422 29.0699 15.4956 29.1966C15.7489 29.3233 15.8967 29.5344 15.9389 29.8299C15.9811 30.1255 15.96 30.3999 15.8756 30.6533L14.4822 32.9333L14.1022 33.6933ZM16.0022 34.9599C15.7489 34.7911 15.58 34.5799 15.4956 34.3266C15.4111 34.0733 15.4111 33.8199 15.4956 33.5666L16.8889 31.2866C17.0578 31.0333 17.2689 30.8644 17.5222 30.7799C17.7756 30.6955 18.0289 30.7166 18.2822 30.8433C18.5356 30.9699 18.7044 31.1811 18.7889 31.4766C18.8733 31.7722 18.8311 32.0466 18.6622 32.2999L17.3956 34.5799C17.2267 34.8333 17.0156 35.0022 16.7622 35.0866C16.5089 35.1711 16.2556 35.1288 16.0022 34.9599ZM22.8422 34.9599C22.6733 35.2133 22.3989 35.4033 22.0189 35.5299C21.6389 35.6566 21.3222 35.6355 21.0689 35.4666L19.0422 34.1999L19.8022 32.9333C19.9711 32.5111 20.0556 32.0888 20.0556 31.6666L22.3356 33.0599C22.6733 33.2288 22.8844 33.5033 22.9689 33.8833C23.0533 34.2633 23.0111 34.6222 22.8422 34.9599ZM28.6689 24.8266C28.5 25.1644 28.2467 25.3755 27.9089 25.46C27.5711 25.5444 27.2333 25.5022 26.8956 25.3333L21.9556 22.42C21.7022 22.3355 21.4911 22.3355 21.3222 22.42C21.1533 22.5044 21.0689 22.6733 21.0689 22.9266C21.0689 23.1799 21.1533 23.3488 21.3222 23.4333L26.2622 26.3466C26.6 26.5155 26.8111 26.7688 26.8956 27.1066C26.98 27.4444 26.9378 27.7822 26.7689 28.12C26.6 28.4577 26.3256 28.6688 25.9456 28.7533C25.5656 28.8377 25.2067 28.7955 24.8689 28.6266L21.0689 26.4733C20.9 26.3888 20.71 26.3888 20.4989 26.4733C20.2878 26.5577 20.1822 26.7266 20.1822 26.9799C20.1822 27.2333 20.3089 27.4022 20.5622 27.4866L24.3622 29.6399C24.6156 29.8933 24.8056 30.1888 24.9322 30.5266C25.0589 30.8644 25.0167 31.2022 24.8056 31.5399C24.5944 31.8777 24.32 32.0888 23.9822 32.1733C23.6444 32.2577 23.3067 32.2155 22.9689 32.0466L20.4356 30.5266C20.1822 30.4422 19.9289 30.4844 19.6756 30.6533C19.4222 30.2311 19.0633 29.9144 18.5989 29.7033C18.1344 29.4922 17.6489 29.4711 17.1422 29.6399V29.5133C16.9733 28.9222 16.6144 28.4788 16.0656 28.1833C15.5167 27.8877 14.9467 27.8244 14.3556 27.9933H14.2289V27.8666C14.06 27.2755 13.7011 26.8322 13.1522 26.5366C12.6033 26.2411 12.0333 26.1355 11.4422 26.2199L11.3156 26.3466C11.2311 25.84 11.02 25.4388 10.6822 25.1433C10.3444 24.8477 9.94333 24.6577 9.47889 24.5733C9.01444 24.4888 8.57111 24.5522 8.14889 24.7633C7.72667 24.9744 7.38889 25.2911 7.13556 25.7133C6.79778 25.1222 6.37556 24.6155 5.86889 24.1933L11.0622 15.2C12.4133 15.0311 13.9756 15.2422 15.7489 15.8333L14.7356 19.5066C14.5667 20.0133 14.5244 20.52 14.6089 21.0266C14.6933 21.5333 14.9044 22.0188 15.2422 22.4833C15.58 22.9477 15.9178 23.1799 16.2556 23.1799C16.5933 23.1799 16.9311 22.9266 17.2689 22.42L17.3956 22.2933C17.9022 21.6177 18.3244 20.9 18.6622 20.1399C19.2533 19.2111 19.6333 18.7044 19.8022 18.6199L20.5622 18.4933L28.1622 22.9266C28.5 23.0955 28.7322 23.37 28.8589 23.75C28.9856 24.13 28.9222 24.4888 28.6689 24.8266ZM30.0622 23.5599C29.8089 22.8 29.3867 22.2511 28.7956 21.9133L20.9422 17.3533C20.7733 17.2688 20.6044 17.2266 20.4356 17.2266L19.5489 17.4799C19.2111 17.5644 18.9156 17.7755 18.6622 18.1133C18.4089 18.4511 18.0711 18.9577 17.6489 19.6333C17.3111 20.3088 16.8889 20.9844 16.3822 21.66L16.2556 21.9133C16.0022 21.4911 15.8544 21.1322 15.8122 20.8366C15.77 20.5411 15.7911 20.2244 15.8756 19.8866L16.7622 16.4666C16.8467 16.2977 16.9311 16.1288 17.0156 15.9599H17.1422C17.3111 15.7911 17.48 15.6644 17.6489 15.58L18.5356 15.3266C19.4644 14.82 20.6889 14.4822 22.2089 14.3133C23.4756 14.1444 24.7 14.0599 25.8822 14.0599L30.8222 22.8L30.0622 23.5599ZM31.9622 22.2933L27.0222 13.68L30.5689 11.6533L35.5089 20.2666L31.9622 22.2933ZM14.9889 11.02C15.1578 11.02 15.2844 10.9566 15.3689 10.83C15.4533 10.7033 15.4956 10.5555 15.4956 10.3866V6.45995C15.4956 6.29106 15.4533 6.14328 15.3689 6.01662C15.2844 5.88995 15.1578 5.82662 14.9889 5.82662H10.9356C10.7667 5.82662 10.64 5.88995 10.5556 6.01662C10.4711 6.14328 10.4289 6.29106 10.4289 6.45995V10.3866C10.4289 10.5555 10.4711 10.7033 10.5556 10.83C10.64 10.9566 10.7667 11.02 10.9356 11.02H14.9889ZM11.5689 6.96662H14.3556V9.75328H11.5689V6.96662ZM14.1022 8.23328L13.2156 9.37328C13.0467 9.45773 12.8778 9.49995 12.7089 9.49995C12.54 9.49995 12.4133 9.45773 12.3289 9.37328L11.8222 8.86662C11.7378 8.78217 11.6956 8.65551 11.6956 8.48662C11.6956 8.31773 11.7589 8.16995 11.8856 8.04328C12.0122 7.91662 12.16 7.85328 12.3289 7.85328C12.4978 7.85328 12.6244 7.89551 12.7089 7.97995V8.10662L13.2156 7.47328C13.3844 7.3044 13.5744 7.24106 13.7856 7.28328C13.9967 7.32551 14.1444 7.45217 14.2289 7.66328C14.3133 7.8744 14.2711 8.06439 14.1022 8.23328ZM17.2689 10.6399C17.2689 10.4711 17.3322 10.3233 17.4589 10.1966C17.5856 10.07 17.7333 10.0066 17.9022 10.0066H25.8822C26.0511 10.0066 26.1778 10.07 26.2622 10.1966C26.3467 10.3233 26.3889 10.4711 26.3889 10.6399C26.3889 10.8088 26.3467 10.9566 26.2622 11.0833C26.1778 11.2099 26.0511 11.2733 25.8822 11.2733H17.9022C17.7333 11.2733 17.5856 11.2099 17.4589 11.0833C17.3322 10.9566 17.2689 10.8088 17.2689 10.6399ZM17.2689 6.45995C17.2689 6.29106 17.3322 6.14328 17.4589 6.01662C17.5856 5.88995 17.7333 5.82662 17.9022 5.82662H21.5756C21.7444 5.82662 21.8922 5.88995 22.0189 6.01662C22.1456 6.14328 22.2089 6.29106 22.2089 6.45995C22.2089 6.62884 22.1456 6.75551 22.0189 6.83995C21.8922 6.92439 21.7444 6.96662 21.5756 6.96662H17.9022C17.7333 6.96662 17.5856 6.92439 17.4589 6.83995C17.3322 6.75551 17.2689 6.62884 17.2689 6.45995ZM17.2689 8.48662C17.2689 8.31773 17.3322 8.19106 17.4589 8.10662C17.5856 8.02217 17.7333 7.97995 17.9022 7.97995H23.0956C23.2644 7.97995 23.4122 8.02217 23.5389 8.10662C23.6656 8.19106 23.7289 8.31773 23.7289 8.48662C23.7289 8.65551 23.6656 8.80328 23.5389 8.92995C23.4122 9.05662 23.2644 9.11995 23.0956 9.11995H17.9022C17.7333 9.11995 17.5856 9.05662 17.4589 8.92995C17.3322 8.80328 17.2689 8.65551 17.2689 8.48662Z" fill="#0E2A46"/>
</svg>
