<svg width="28" height="38" viewBox="0 0 28 38" fill="none" xmlns="http://www.w3.org/2000/svg">
<path d="M27.36 35.3156C26.8533 32.7823 26.3889 30.46 25.9667 28.3489L25.7133 27.2089C25.46 26.0267 24.8267 25.1823 23.8133 24.6756C23.56 24.5067 23.3067 24.38 23.0533 24.2956L18.7467 22.7756L17.3533 21.8889V20.7489C18.3667 20.1578 19.1689 19.3767 19.76 18.4056C20.3511 17.4345 20.7311 16.4 20.9 15.3023C21.7444 15.3023 22.3989 14.9856 22.8633 14.3523C23.3278 13.7189 23.3911 13.0223 23.0533 12.2623V7.82892C23.0533 6.39336 22.7156 5.21114 22.04 4.28225C21.7022 3.77559 21.2378 3.39559 20.6467 3.14225C19.38 1.53781 17.6489 0.545586 15.4533 0.165585C13.2578 -0.214413 11.1889 0.0600319 9.24667 0.988918C8.65556 1.3267 8.06444 1.74892 7.47333 2.25558C7.38889 2.34003 7.32556 2.4667 7.28333 2.63559C7.24111 2.80447 7.28333 2.93114 7.41 3.01559C7.53667 3.10003 7.66333 3.16336 7.79 3.20559C7.91667 3.24781 8.06444 3.18447 8.23333 3.01559C9.41556 2.0867 10.7667 1.49559 12.2867 1.24225C13.8067 0.988918 15.2422 1.11559 16.5933 1.62225C17.9444 2.12892 19.0422 2.88892 19.8867 3.90225C19.9711 3.9867 20.0556 4.02892 20.14 4.02892C20.4778 4.19781 20.7733 4.45114 21.0267 4.78892C21.6178 5.54892 21.9133 6.56225 21.9133 7.82892V11.2489C21.5756 11.1645 21.2378 11.1223 20.9 11.1223V9.22225C20.9 9.05336 20.8156 8.88448 20.6467 8.71559C20.4778 8.5467 20.3089 8.42003 20.14 8.33559C19.38 8.33559 18.7889 7.95559 18.3667 7.19559C18.1978 6.85781 17.9444 6.66781 17.6067 6.62559C17.2689 6.58336 16.9733 6.68892 16.72 6.94225C15.5378 7.87114 14.2289 8.46225 12.7933 8.71559C11.6956 8.96892 10.5556 9.01114 9.37333 8.84225C8.61333 8.75781 7.93778 8.9267 7.34667 9.34892C6.75556 9.77114 6.41778 10.3623 6.33333 11.1223C5.91111 11.1223 5.53111 11.1645 5.19333 11.2489V10.6156C5.19333 9.43336 5.23556 8.5467 5.32 7.95559C5.57333 6.85781 5.99556 5.84447 6.58667 4.91558C6.67111 4.7467 6.69222 4.59892 6.65 4.47225C6.60778 4.34558 6.52333 4.24003 6.39667 4.15559C6.27 4.07114 6.14333 4.05003 6.01667 4.09225C5.89 4.13448 5.78444 4.19781 5.7 4.28225C4.94 5.38003 4.47556 6.56225 4.30667 7.82892C4.13778 8.58892 4.09556 9.60225 4.18 10.8689L4.05333 12.2623C3.71556 13.0223 3.8 13.7189 4.30667 14.3523C4.81333 14.9856 5.48889 15.3023 6.33333 15.3023C6.50222 16.9067 7.13556 18.3 8.23333 19.4823L8.36 19.6089C8.86667 20.1156 9.41556 20.5378 10.0067 20.8756V21.8889L8.61333 22.7756L5.57333 23.9156C4.30667 24.3378 3.58889 24.5911 3.42 24.6756L3.29333 24.8023C2.44889 25.3089 1.9 26.0267 1.64667 26.9556L0 35.3156C0 35.5689 0 35.8223 0 36.0756C0.0844444 36.6667 0.316667 37.1311 0.696667 37.4689C1.07667 37.8067 1.60444 37.9756 2.28 37.9756H17.6067C17.7756 37.9756 17.9022 37.9123 17.9867 37.7856C18.0711 37.6589 18.1133 37.5323 18.1133 37.4056C18.1133 37.2789 18.0711 37.1523 17.9867 37.0256C17.9022 36.8989 17.7756 36.8356 17.6067 36.8356H6.20667V31.7689C6.20667 31.6 6.14333 31.4734 6.01667 31.3889C5.89 31.3045 5.76333 31.2623 5.63667 31.2623C5.51 31.2623 5.38333 31.3045 5.25667 31.3889C5.13 31.4734 5.06667 31.6 5.06667 31.7689V36.8356H2.28C1.35111 36.8356 0.971111 36.4134 1.14 35.5689L2.40667 28.9823C2.66 27.8 2.82889 27.1245 2.91333 26.9556V26.8289C3.16667 26.2378 3.63111 25.7734 4.30667 25.4356L6.71333 24.6756L8.10667 27.0823C8.10667 27.2511 8.19111 27.3567 8.36 27.3989C8.52889 27.4411 8.67667 27.42 8.80333 27.3356C8.93 27.2511 9.01444 27.1456 9.05667 27.0189C9.09889 26.8923 9.07778 26.7445 8.99333 26.5756L7.72667 24.2956L8.61333 24.0423L13.0467 32.2756C13.2156 32.4445 13.4267 32.5289 13.68 32.5289C13.9333 32.5289 14.1022 32.4445 14.1867 32.2756L18.7467 24.0423L19.6333 24.2956L15.0733 32.6556C14.7356 33.1623 14.2711 33.4156 13.68 33.4156C13.0889 33.4156 12.6244 33.1623 12.2867 32.6556L10.26 28.8556C10.1756 28.7711 10.07 28.7078 9.94333 28.6656C9.81667 28.6234 9.66889 28.6234 9.5 28.6656C9.33111 28.7078 9.22556 28.8134 9.18333 28.9823C9.14111 29.1511 9.16222 29.2778 9.24667 29.3623L11.2733 33.1623C11.6111 33.7534 12.0967 34.1545 12.73 34.3656C13.3633 34.5767 13.9967 34.5767 14.63 34.3656C15.2633 34.1545 15.7489 33.7534 16.0867 33.1623L20.6467 24.6756L22.8 25.4356L23.6867 25.8156C24.1089 26.2378 24.4044 26.7023 24.5733 27.2089L26.22 35.8223C26.3044 36.4978 25.9244 36.8356 25.08 36.8356H22.2933V31.7689C22.2933 31.6 22.23 31.4734 22.1033 31.3889C21.9767 31.3045 21.85 31.2623 21.7233 31.2623C21.5967 31.2623 21.47 31.3045 21.3433 31.3889C21.2167 31.4734 21.1533 31.6 21.1533 31.7689V36.8356H20.14C19.9711 36.8356 19.8444 36.8989 19.76 37.0256C19.6756 37.1523 19.6333 37.2789 19.6333 37.4056C19.6333 37.5323 19.6756 37.6589 19.76 37.7856C19.8444 37.9123 19.9711 37.9756 20.14 37.9756H25.08C25.7556 37.9756 26.2833 37.8067 26.6633 37.4689C27.0433 37.1311 27.2756 36.6667 27.36 36.0756C27.36 35.8223 27.36 35.5689 27.36 35.3156ZM20.9 12.2623C21.2378 12.1778 21.5333 12.2411 21.7867 12.4523C22.04 12.6634 22.1667 12.9167 22.1667 13.2123C22.1667 13.5078 22.04 13.74 21.7867 13.9089C21.5333 14.0778 21.2378 14.1623 20.9 14.1623V12.2623ZM6.20667 14.1623C5.86889 14.1623 5.59444 14.0778 5.38333 13.9089C5.17222 13.74 5.06667 13.5078 5.06667 13.2123C5.06667 12.9167 5.17222 12.6634 5.38333 12.4523C5.59444 12.2411 5.86889 12.1778 6.20667 12.2623V14.1623ZM9.24667 9.98225C10.5978 10.1511 11.8644 10.1089 13.0467 9.85559C14.6511 9.51781 16.0867 8.80003 17.3533 7.70225C17.9444 8.71559 18.7467 9.3067 19.76 9.47559V11.5023L19.1267 11.8823C18.8733 11.46 18.4933 11.2489 17.9867 11.2489H15.4533C15.1156 11.2489 14.8411 11.3123 14.63 11.4389C14.4189 11.5656 14.2289 11.7978 14.06 12.1356H13.0467C12.9622 11.7978 12.7933 11.5656 12.54 11.4389C12.2867 11.3123 12.0333 11.2489 11.78 11.2489H9.12C8.61333 11.2489 8.23333 11.46 7.98 11.8823L7.34667 11.5023C7.34667 10.9956 7.53667 10.5945 7.91667 10.2989C8.29667 10.0034 8.74 9.89781 9.24667 9.98225ZM18.3667 12.6423V13.7823C18.3667 14.0356 18.2822 14.2467 18.1133 14.4156C17.9444 14.5845 17.7333 14.6689 17.48 14.6689H15.96C15.7067 14.6689 15.4956 14.5845 15.3267 14.4156C15.1578 14.2467 15.0733 14.0356 15.0733 13.7823V12.6423C15.0733 12.3889 15.2 12.2623 15.4533 12.2623H17.9867C18.24 12.2623 18.3667 12.3889 18.3667 12.6423ZM12.0333 12.6423V13.7823C12.0333 14.0356 11.9489 14.2467 11.78 14.4156C11.6111 14.5845 11.4 14.6689 11.1467 14.6689H9.75333C9.5 14.6689 9.28889 14.5845 9.12 14.4156C8.95111 14.2467 8.86667 14.0356 8.86667 13.7823V12.6423C8.86667 12.3889 8.95111 12.2623 9.12 12.2623H11.78C11.9489 12.2623 12.0333 12.3889 12.0333 12.6423ZM8.86667 18.5956C8.19111 17.7511 7.72667 16.8645 7.47333 15.9356C7.38889 15.3445 7.34667 14.5423 7.34667 13.5289V12.7689L7.72667 13.0223V13.7823C7.72667 14.2889 7.91667 14.7323 8.29667 15.1123C8.67667 15.4923 9.16222 15.6823 9.75333 15.6823H11.1467C11.7378 15.6823 12.2233 15.4923 12.6033 15.1123C12.9833 14.7323 13.1733 14.2889 13.1733 13.7823V13.1489H13.9333V13.7823C13.9333 14.2889 14.1444 14.7323 14.5667 15.1123C14.9889 15.4923 15.4533 15.6823 15.96 15.6823H17.48C17.9867 15.6823 18.43 15.4923 18.81 15.1123C19.19 14.7323 19.38 14.2889 19.38 13.7823V13.0223L19.76 12.7689V14.4156C19.76 16.1045 19.1689 17.5611 17.9867 18.7856C16.8044 20.01 15.3267 20.6645 13.5533 20.7489C13.1311 20.7489 12.7089 20.7067 12.2867 20.6223L11.9067 20.4956C10.7244 20.1578 9.71111 19.5245 8.86667 18.5956ZM13.68 24.8023L11.1467 21.8889V21.3823C12.3289 21.8045 13.5111 21.9311 14.6933 21.7623L15.4533 21.5089L16.2133 21.3823V21.8889L13.68 24.8023ZM14.3133 26.7023L14.06 27.2089H13.3L13.0467 26.7023L13.68 26.3223L14.3133 26.7023ZM12.16 28.2223L11.9067 27.5889L12.16 27.4623L12.4133 27.8423L12.16 28.2223ZM11.2733 26.5756L9.62667 23.5356L10.5133 22.9023L12.7933 25.5623L11.2733 26.5756ZM13.68 31.0089L12.92 29.6156L13.3 28.3489H14.06L14.44 29.6156L13.68 31.0089ZM15.2 28.2223L14.9467 27.8423L15.2 27.4623L15.4533 27.5889L15.2 28.2223ZM16.0867 26.5756C15.6644 26.3223 15.1578 25.9845 14.5667 25.5623L16.8467 22.9023L17.7333 23.5356L16.0867 26.5756Z" fill="#0E2A46"/>
</svg>
